<?xml version="1.0" encoding="iso-8859-1"?>
<!-- Generator: Adobe Illustrator 19.0.0, SVG Export Plug-In . SVG Version: 6.00 Build 0)  -->
<svg version="1.1" id="Capa_1" xmlns="http://www.w3.org/2000/svg" xmlns:xlink="http://www.w3.org/1999/xlink" x="0px" y="0px"
	 viewBox="0 0 512 512" style="enable-background:new 0 0 512 512;" xml:space="preserve">
<path style="fill:#303C42;" d="M131.344,490.667C58.917,490.667,0,431.75,0,359.323c0-35.083,13.656-68.073,38.469-92.875
	l241.99-241.99c4.167-4.167,10.917-4.167,15.083,0c4.167,4.167,4.167,10.917,0,15.083l-241.99,241.99
	c-20.781,20.781-32.219,48.406-32.219,77.792c0,60.656,49.354,110.01,110.01,110.01c29.385,0,57.01-11.438,77.792-32.219
	l258.146-258.146c15.083-15.083,23.385-35.135,23.385-56.458c0-44.021-35.823-79.844-79.844-79.844
	c-21.323,0-41.375,8.302-56.458,23.385L121.219,299.198c-9.385,9.385-14.552,21.854-14.552,35.125
	c0,27.396,22.281,49.677,49.677,49.677c13.271,0,25.74-5.167,35.125-14.552l216.99-216.99c4.167-4.167,10.917-4.167,15.083,0
	c4.167,4.167,4.167,10.917,0,15.083l-216.99,216.99c-13.417,13.417-31.24,20.802-50.208,20.802c-39.156,0-71.01-31.854-71.01-71.01
	c0-18.969,7.385-36.792,20.802-50.208L339.281,50.969c19.104-19.115,44.521-29.635,71.542-29.635
	C466.615,21.333,512,66.719,512,122.51c0,27.021-10.521,52.438-29.635,71.542L224.219,452.198
	C199.417,477.01,166.427,490.667,131.344,490.667z"/>
<linearGradient id="SVGID_1_" gradientUnits="userSpaceOnUse" x1="-43.1322" y1="638.6717" x2="-26.7399" y2="631.0276" gradientTransform="matrix(21.3333 0 0 -21.3333 996.3334 13791.667)">
	<stop  offset="0" style="stop-color:#FFFFFF;stop-opacity:0.2"/>
	<stop  offset="1" style="stop-color:#FFFFFF;stop-opacity:0"/>
</linearGradient>
<path style="fill:url(#SVGID_1_);" d="M131.344,490.667C58.917,490.667,0,431.75,0,359.323c0-35.083,13.656-68.073,38.469-92.875
	l241.99-241.99c4.167-4.167,10.917-4.167,15.083,0c4.167,4.167,4.167,10.917,0,15.083l-241.99,241.99
	c-20.781,20.781-32.219,48.406-32.219,77.792c0,60.656,49.354,110.01,110.01,110.01c29.385,0,57.01-11.438,77.792-32.219
	l258.146-258.146c15.083-15.083,23.385-35.135,23.385-56.458c0-44.021-35.823-79.844-79.844-79.844
	c-21.323,0-41.375,8.302-56.458,23.385L121.219,299.198c-9.385,9.385-14.552,21.854-14.552,35.125
	c0,27.396,22.281,49.677,49.677,49.677c13.271,0,25.74-5.167,35.125-14.552l216.99-216.99c4.167-4.167,10.917-4.167,15.083,0
	c4.167,4.167,4.167,10.917,0,15.083l-216.99,216.99c-13.417,13.417-31.24,20.802-50.208,20.802c-39.156,0-71.01-31.854-71.01-71.01
	c0-18.969,7.385-36.792,20.802-50.208L339.281,50.969c19.104-19.115,44.521-29.635,71.542-29.635
	C466.615,21.333,512,66.719,512,122.51c0,27.021-10.521,52.438-29.635,71.542L224.219,452.198
	C199.417,477.01,166.427,490.667,131.344,490.667z"/>
<g>
</g>
<g>
</g>
<g>
</g>
<g>
</g>
<g>
</g>
<g>
</g>
<g>
</g>
<g>
</g>
<g>
</g>
<g>
</g>
<g>
</g>
<g>
</g>
<g>
</g>
<g>
</g>
<g>
</g>
</svg>
