<?xml version="1.0" encoding="iso-8859-1"?>
<!-- Generator: Adobe Illustrator 19.0.0, SVG Export Plug-In . SVG Version: 6.00 Build 0)  -->
<svg xmlns="http://www.w3.org/2000/svg" xmlns:xlink="http://www.w3.org/1999/xlink" version="1.1" id="Capa_1" x="0px" y="0px" viewBox="0 0 512 512" style="enable-background:new 0 0 512 512;" xml:space="preserve" width="512px" height="512px">
<g>
	<g>
		<path d="M254.883,187.733h-34.133c-4.713,0-8.533,3.82-8.533,8.533s3.82,8.533,8.533,8.533h8.533v8.533    c0,4.713,3.821,8.533,8.533,8.533c4.713,0,8.533-3.821,8.533-8.533V204.8h8.533c4.713,0,8.533-3.82,8.533-8.533    S259.595,187.733,254.883,187.733z" fill="#979797"/>
	</g>
</g>
<g>
	<g>
		<path d="M340.216,187.733h-34.133c-4.713,0-8.533,3.82-8.533,8.533s3.82,8.533,8.533,8.533h8.533v8.533    c0,4.713,3.82,8.533,8.533,8.533s8.533-3.821,8.533-8.533V204.8h8.533c4.713,0,8.533-3.82,8.533-8.533    S344.929,187.733,340.216,187.733z" fill="#979797"/>
	</g>
</g>
<g>
	<g>
		<path d="M289.016,247.467h-17.067c-4.713,0-8.533,3.82-8.533,8.533s3.82,8.533,8.533,8.533h17.067c4.713,0,8.533-3.82,8.533-8.533    S293.729,247.467,289.016,247.467z" fill="#979797"/>
	</g>
</g>
<g>
	<g>
		<path d="M297.549,281.6h-34.133c-4.713,0-8.533,3.82-8.533,8.533s3.82,8.533,8.533,8.533h34.133c4.713,0,8.533-3.82,8.533-8.533    S302.262,281.6,297.549,281.6z" fill="#979797"/>
	</g>
</g>
<g>
	<g>
		<path d="M486.307,478.617l-11.358-35.542c-14.519-38.794-50.697-65.256-92.067-67.342v-8.8c-0.015-14.132-11.468-25.585-25.6-25.6    h-7.345c0.182-5.404,0.53-10.973,1.229-16.692c1.207-10.497,2.859-19.019,3.957-24.11c11.058-11.25,17.856-25.999,19.226-41.715    c0-0.975-0.095-1.969-0.13-2.948c1.101,0.321,2.235,0.51,3.38,0.565c1.556-0.002,3.101-0.259,4.575-0.758    c4.4-1.467,17.775-5.925,17.775-59.408c0-5.117-0.09-19.61-8.533-26.394V76.8c-0.046-42.396-34.404-76.754-76.8-76.8h-68.267    c-42.396,0.046-76.754,34.404-76.8,76.8v93.073c-8.444,6.784-8.533,21.277-8.533,26.394c0,53.483,13.375,57.941,17.775,59.408    c1.474,0.5,3.019,0.756,4.575,0.758c1.143-0.055,2.277-0.244,3.376-0.563c-0.035,0.989-0.126,1.948-0.126,2.946    c1.369,15.719,8.168,30.472,19.229,41.725c1.098,5.094,2.75,13.617,3.963,24.166c0.693,5.673,1.04,11.229,1.221,16.625h-7.346    c-14.132,0.015-25.585,11.468-25.6,25.6v8.8c-11.718,0.595-23.254,3.141-34.133,7.533v-59    c-0.028-20.265-14.283-37.724-34.133-41.804V17.067C109.804,7.646,102.17,0.012,92.749,0H75.682    c-6.069,0.021-11.667,3.272-14.692,8.533H33.016c-4.711-0.003-8.532,3.814-8.535,8.525c-0.001,1.488,0.388,2.95,1.127,4.241    l33.008,57.765V512h403.3c14.139,0.001,25.602-11.46,25.603-25.599C487.519,483.759,487.11,481.133,486.307,478.617z     M58.616,44.663L47.724,25.6h10.892V44.663z M92.749,494.933H75.682v-204.8V17.067h17.067V494.933z M126.882,494.933h-17.067    V300.24c10.199,3.592,17.034,13.214,17.067,24.027V494.933z M357.282,358.4c4.712,0.003,8.53,3.822,8.533,8.533v8.533h-13.577    c-2.072-1.167-4.539-1.409-6.798-0.667c-10.033,3.358-19.017,15-29.425,28.483c-7.486,10.963-16.589,20.729-27,28.966v-19.491    l44.042-51.383c1.618-1.892,3.985-2.98,6.475-2.975H357.282z M380.032,184.383l0.04-0.182c0.343-0.192,0.698-0.365,1.06-0.518    c1.459,4.025,2.056,8.313,1.75,12.583c0,26.717-3.717,38.675-5.842,42.375c-1.378-1.207-2.628-2.553-3.729-4.017    c-0.148-15.93,1.829-31.809,5.879-47.217C379.39,186.483,379.665,185.625,380.032,184.383z M186.616,76.8    c0.04-32.973,26.76-59.693,59.733-59.733h68.267c32.973,0.04,59.693,26.76,59.733,59.733v76.8H186.616V76.8z M183.924,238.642    c-2.125-3.7-5.842-15.658-5.842-42.375c-0.305-4.271,0.291-8.558,1.75-12.583c0.372,0.156,0.736,0.334,1.089,0.531    c0.05,0.19,0.069,0.354,0.119,0.544c0.258,0.867,0.533,1.725,0.833,3.042c3.992,15.286,5.933,31.036,5.771,46.834    C186.545,236.094,185.299,237.437,183.924,238.642z M203.682,258.817c0-1.792,0.075-3.583,0.208-5.142    c0.341-3.167,0.525-6.417,0.725-10.15c1.038-20.109-1.039-40.259-6.159-59.733c-0.308-1.4-0.7-2.717-1.042-3.808    c-0.803-3.061-1.394-6.174-1.768-9.317h169.674c-0.361,3.069-0.934,6.11-1.715,9.1c-0.4,1.308-0.792,2.625-1,3.633    c-5.211,19.757-7.314,40.204-6.233,60.608c0.175,3.25,0.358,6.5,0.683,9.508c0.15,1.717,0.225,3.508,0.225,5.3    c-1.648,12.085-7.302,23.268-16.058,31.758c-10.281,11.601-21.693,22.147-34.066,31.483c-15.748,12.034-37.603,12.034-53.35,0    c-12.386-9.346-23.809-19.904-34.1-31.517C210.967,282.057,205.325,270.886,203.682,258.817z M271.949,494.933h-128v-92.656    c2.048-1.072,4.024-2.225,6.2-3.127c10.596-4.352,21.937-6.6,33.392-6.617h28.675c0.161,0,0.296-0.083,0.456-0.092    c7.027,6.37,13.322,13.503,18.769,21.267c11.829,15.327,25.02,32.256,40.508,37.087V494.933z M271.949,432.249    c-10.411-8.237-19.514-18.003-27-28.966c-10.408-13.483-19.392-25.125-29.425-28.483c-2.254-0.738-4.715-0.496-6.783,0.667    h-13.592v-8.533c0.003-4.711,3.822-8.53,8.533-8.533h17.75c2.492-0.003,4.861,1.084,6.483,2.975l44.033,51.373V432.249z     M240.875,350.276c-3.359-3.873-7.807-6.644-12.764-7.952c-0.158-6.346-0.532-12.862-1.361-19.631    c-0.046-0.401-0.102-0.747-0.15-1.143c5.138,4.579,10.628,9.227,16.725,13.977c21.935,16.767,52.382,16.767,74.317,0    c6.097-4.75,11.589-9.398,16.725-13.977c-0.044,0.374-0.098,0.7-0.142,1.077c-0.835,6.819-1.211,13.346-1.369,19.698    c-4.955,1.307-9.401,4.079-12.756,7.952l-39.619,46.217L240.875,350.276z M314.616,494.933h-25.6v-17.067h17.067    c4.711,0.003,8.53,3.822,8.533,8.533V494.933z M468.808,491.433c-1.597,2.211-4.164,3.515-6.892,3.5H331.682V486.4    c-0.015-14.132-11.468-25.585-25.6-25.6h-17.067v-10.004c15.488-4.831,28.679-21.76,40.508-37.088    c5.447-7.764,11.742-14.897,18.769-21.267c0.159,0.008,0.294,0.092,0.456,0.092h28.65c36.156,0.006,68.554,22.337,81.425,56.125    l11.225,35.15C470.888,486.402,470.426,489.24,468.808,491.433z" fill="#979797"/>
	</g>
</g>
<g>
</g>
<g>
</g>
<g>
</g>
<g>
</g>
<g>
</g>
<g>
</g>
<g>
</g>
<g>
</g>
<g>
</g>
<g>
</g>
<g>
</g>
<g>
</g>
<g>
</g>
<g>
</g>
<g>
</g>
</svg>
