<svg xmlns="http://www.w3.org/2000/svg" xmlns:xlink="http://www.w3.org/1999/xlink" viewBox="0 0 57.711 57.711">
  <defs>
    <style>
      .cls-1 {
        fill: none;
      }

      .cls-2 {
        clip-path: url(#clip-path);
      }

      .cls-3 {
        clip-path: url(#clip-path-2);
      }

      .cls-4 {
        fill: #fff;
      }

      .cls-5 {
        clip-path: url(#clip-path-3);
      }

      .cls-6 {
        fill: #87d1f3;
      }

      .cls-7 {
        clip-path: url(#clip-path-5);
      }

      .cls-8 {
        clip-path: url(#clip-path-7);
      }

      .cls-9 {
        clip-path: url(#clip-path-9);
      }

      .cls-10 {
        clip-path: url(#clip-path-11);
      }

      .cls-11 {
        clip-path: url(#clip-path-13);
      }

      .cls-12 {
        clip-path: url(#clip-path-15);
      }

      .cls-13 {
        fill: #2170a6;
      }

      .cls-14 {
        clip-path: url(#clip-path-17);
      }

      .cls-15 {
        clip-path: url(#clip-path-19);
      }

      .cls-16 {
        clip-path: url(#clip-path-21);
      }

      .cls-17 {
        clip-path: url(#clip-path-23);
      }

      .cls-18 {
        clip-path: url(#clip-path-25);
      }

      .cls-19 {
        clip-path: url(#clip-path-27);
      }
    </style>
    <clipPath id="clip-path">
      <path id="Path_182" data-name="Path 182" class="cls-1" d="M58.475-105v40.829a4.814,4.814,0,0,1-4.824,4.8H7.824A4.814,4.814,0,0,1,3-64.171V-105Z" transform="translate(-3 105)"/>
    </clipPath>
    <clipPath id="clip-path-2">
      <path id="Path_181" data-name="Path 181" class="cls-1" d="M-576-123.572H-3.36V-562H-576Z" transform="translate(576 562)"/>
    </clipPath>
    <clipPath id="clip-path-3">
      <path id="Path_185" data-name="Path 185" class="cls-1" d="M58.475-121.3v4.7H3v-4.7A4.762,4.762,0,0,1,7.824-126H53.651A4.762,4.762,0,0,1,58.475-121.3Z" transform="translate(-3 126)"/>
    </clipPath>
    <clipPath id="clip-path-5">
      <path id="Path_188" data-name="Path 188" class="cls-1" d="M59.538-89a.419.419,0,0,1,.121.012l-.121,1.163L47.174-81.343l-3.3,1.738-3.3-1.738L28.205-87.825H27A1.19,1.19,0,0,1,28.205-89H59.538Z" transform="translate(-27 89)"/>
    </clipPath>
    <clipPath id="clip-path-7">
      <path id="Path_191" data-name="Path 191" class="cls-1" d="M85.421-87.813v19.184a1.2,1.2,0,0,1-.727,1.1l-.465-1.1L72.31-80.619,72-81.195l12.229-6.618L84.349-89A1.2,1.2,0,0,1,85.421-87.813Z" transform="translate(-72 89)"/>
    </clipPath>
    <clipPath id="clip-path-9">
      <path id="Path_194" data-name="Path 194" class="cls-1" d="M60.3-58.34l.468,1.111a1.2,1.2,0,0,1-.468.1H29.12a.4.4,0,0,1-.12-.012l.12-1.2L41.111-70.42l.312-.58,3.286,1.788L47.993-71l.312.58Z" transform="translate(-29 71)"/>
    </clipPath>
    <clipPath id="clip-path-11">
      <path id="Path_197" data-name="Path 197" class="cls-1" d="M28.36-66.545l-.119,1.193a1.2,1.2,0,0,1-1.074-1.193V-85.832H28.36L40.6-79.178l-.31.579Z" transform="translate(-27.167 85.832)"/>
    </clipPath>
    <clipPath id="clip-path-13">
      <path id="Path_200" data-name="Path 200" class="cls-1" d="M57.132-50.805,63.1-41.162H59.518v7.232H54.745v-7.232H51.166Z" transform="translate(-51.166 50.805)"/>
    </clipPath>
    <clipPath id="clip-path-15">
      <path id="Path_203" data-name="Path 203" class="cls-1" d="M51.7-129H6.012A6.019,6.019,0,0,0,0-122.988V-77.3a6.019,6.019,0,0,0,6.012,6.012H51.7A6.019,6.019,0,0,0,57.711-77.3v-45.688A6.019,6.019,0,0,0,51.7-129Zm3.607,51.7A3.607,3.607,0,0,1,51.7-73.693H6.012A3.607,3.607,0,0,1,2.4-77.3v-45.688A3.607,3.607,0,0,1,6.012-126.6H51.7a3.607,3.607,0,0,1,3.607,3.607V-77.3Z" transform="translate(0 129)"/>
    </clipPath>
    <clipPath id="clip-path-17">
      <path id="Path_206" data-name="Path 206" class="cls-1" d="M10.75-107.5H58.843v2.4H10.75Z" transform="translate(-10.75 107.5)"/>
    </clipPath>
    <clipPath id="clip-path-19">
      <path id="Path_209" data-name="Path 209" class="cls-1" d="M13.437-118.25h2.4v2.4h-2.4Z" transform="translate(-13.437 118.25)"/>
    </clipPath>
    <clipPath id="clip-path-21">
      <path id="Path_212" data-name="Path 212" class="cls-1" d="M24.188-118.25h2.4v2.4h-2.4Z" transform="translate(-24.188 118.25)"/>
    </clipPath>
    <clipPath id="clip-path-23">
      <path id="Path_215" data-name="Path 215" class="cls-1" d="M110.187-118.25h2.4v2.4h-2.4Z" transform="translate(-110.187 118.25)"/>
    </clipPath>
    <clipPath id="clip-path-25">
      <path id="Path_218" data-name="Path 218" class="cls-1" d="M58.177-91.347a1.676,1.676,0,0,0-.325-.028H26.592a2.4,2.4,0,0,0-2.4,2.4v19.237a2.394,2.394,0,0,0,2.08,2.377,1.677,1.677,0,0,0,.325.028h7.214v-2.4H28.292L39.314-80.755,41.65-79.5a1.2,1.2,0,0,0,1.145,0l2.336-1.259L56.152-69.733H50.638v2.4h7.214a2.4,2.4,0,0,0,2.4-2.4V-88.97A2.393,2.393,0,0,0,58.177-91.347ZM26.592-71.433V-87.6L37.1-81.945Zm15.63-10.488L29.129-88.971H55.316ZM57.853-87.6v16.171L47.342-81.945Z" transform="translate(-24.187 91.375)"/>
    </clipPath>
    <clipPath id="clip-path-27">
      <path id="Path_221" data-name="Path 221" class="cls-1" d="M56.6-53.143a1.249,1.249,0,0,0-1.74-.3,1.25,1.25,0,0,0-.3.3l-6.012,9.619a1.2,1.2,0,0,0,.382,1.657,1.2,1.2,0,0,0,.642.183h2.4v6.012h2.4v-7.214a1.2,1.2,0,0,0-1.2-1.2H51.735l3.847-6.147,3.847,6.147H57.987a1.2,1.2,0,0,0-1.2,1.2v7.214h2.4v-6.012h2.4a1.2,1.2,0,0,0,1.2-1.2,1.2,1.2,0,0,0-.183-.637Z" transform="translate(-48.364 53.674)"/>
    </clipPath>
  </defs>
  <g id="Group_489" data-name="Group 489" transform="translate(0 129)">
    <g id="Group_462" data-name="Group 462" class="cls-2" transform="translate(1.342 -118.263)">
      <g id="Group_461" data-name="Group 461" class="cls-3" transform="translate(-259.03 -204.45)">
        <path id="Path_180" data-name="Path 180" class="cls-4" d="M-2-110H57.948v50.106H-2Z" transform="translate(258.793 312.214)"/>
      </g>
    </g>
    <g id="Group_464" data-name="Group 464" class="cls-5" transform="translate(1.342 -127.658)">
      <g id="Group_463" data-name="Group 463" class="cls-3" transform="translate(-259.03 -195.056)">
        <path id="Path_183" data-name="Path 183" class="cls-6" d="M-2-131H57.948v13.869H-2Z" transform="translate(258.793 323.819)"/>
      </g>
    </g>
    <g id="Group_466" data-name="Group 466" class="cls-7" transform="translate(12.079 -111.105)">
      <g id="Group_465" data-name="Group 465" class="cls-3" transform="translate(-269.767 -211.608)">
        <path id="Path_186" data-name="Path 186" class="cls-4" d="M22-94H59.132v13.869H22Z" transform="translate(245.53 303.372)"/>
      </g>
    </g>
    <g id="Group_468" data-name="Group 468" class="cls-8" transform="translate(32.211 -111.105)">
      <g id="Group_467" data-name="Group 467" class="cls-3" transform="translate(-289.899 -211.608)">
        <path id="Path_189" data-name="Path 189" class="cls-6" d="M67-94H84.9v25.948H67Z" transform="translate(220.662 303.372)"/>
      </g>
    </g>
    <g id="Group_470" data-name="Group 470" class="cls-9" transform="translate(12.974 -103.052)">
      <g id="Group_469" data-name="Group 469" class="cls-3" transform="translate(-270.662 -219.661)">
        <path id="Path_192" data-name="Path 192" class="cls-4" d="M24-76H60.237v18.342H24Z" transform="translate(244.425 293.424)"/>
      </g>
    </g>
    <g id="Group_472" data-name="Group 472" class="cls-10" transform="translate(12.154 -109.688)">
      <g id="Group_471" data-name="Group 471" class="cls-3" transform="translate(-269.842 -213.026)">
        <path id="Path_195" data-name="Path 195" class="cls-6" d="M22.167-90.832H40.073v24.953H22.167Z" transform="translate(245.438 301.621)"/>
      </g>
    </g>
    <g id="Group_474" data-name="Group 474" class="cls-11" transform="translate(22.891 -94.018)">
      <g id="Group_473" data-name="Group 473" class="cls-3" transform="translate(-280.579 -228.696)">
        <path id="Path_198" data-name="Path 198" class="cls-6" d="M46.167-55.805h16.4v21.349h-16.4Z" transform="translate(232.175 282.264)"/>
      </g>
    </g>
    <g id="Group_476" data-name="Group 476" class="cls-12" transform="translate(0 -129)">
      <g id="Group_475" data-name="Group 475" class="cls-3" transform="translate(-257.688 -193.713)">
        <path id="Path_201" data-name="Path 201" class="cls-13" d="M-5-134H57.185v62.185H-5Z" transform="translate(260.451 325.477)"/>
      </g>
    </g>
    <g id="Group_478" data-name="Group 478" class="cls-14" transform="translate(4.809 -119.381)">
      <g id="Group_477" data-name="Group 477" class="cls-3" transform="translate(-262.497 -203.332)">
        <path id="Path_204" data-name="Path 204" class="cls-13" d="M5.75-112.5H58.317v6.878H5.75Z" transform="translate(254.51 313.595)"/>
      </g>
    </g>
    <g id="Group_480" data-name="Group 480" class="cls-15" transform="translate(6.012 -124.191)">
      <g id="Group_479" data-name="Group 479" class="cls-3" transform="translate(-263.7 -198.523)">
        <path id="Path_207" data-name="Path 207" class="cls-13" d="M8.437-123.25h6.878v6.878H8.437Z" transform="translate(253.025 319.536)"/>
      </g>
    </g>
    <g id="Group_482" data-name="Group 482" class="cls-16" transform="translate(10.821 -124.191)">
      <g id="Group_481" data-name="Group 481" class="cls-3" transform="translate(-268.509 -198.523)">
        <path id="Path_210" data-name="Path 210" class="cls-13" d="M19.188-123.25h6.878v6.878H19.188Z" transform="translate(247.085 319.536)"/>
      </g>
    </g>
    <g id="Group_484" data-name="Group 484" class="cls-17" transform="translate(49.295 -124.191)">
      <g id="Group_483" data-name="Group 483" class="cls-3" transform="translate(-306.983 -198.523)">
        <path id="Path_213" data-name="Path 213" class="cls-13" d="M105.187-123.25h6.878v6.878h-6.878Z" transform="translate(199.559 319.536)"/>
      </g>
    </g>
    <g id="Group_486" data-name="Group 486" class="cls-18" transform="translate(10.821 -112.168)">
      <g id="Group_485" data-name="Group 485" class="cls-3" transform="translate(-268.509 -210.546)">
        <path id="Path_216" data-name="Path 216" class="cls-13" d="M19.187-96.375H59.731v28.52H19.187Z" transform="translate(247.085 304.684)"/>
      </g>
    </g>
    <g id="Group_488" data-name="Group 488" class="cls-19" transform="translate(21.637 -95.301)">
      <g id="Group_487" data-name="Group 487" class="cls-3" transform="translate(-279.325 -227.413)">
        <path id="Path_219" data-name="Path 219" class="cls-13" d="M43.364-58.674H62.271V-36.2H43.364Z" transform="translate(233.724 283.849)"/>
      </g>
    </g>
  </g>
</svg>
