<?xml version="1.0" encoding="iso-8859-1"?>
<!-- Generator: Adobe Illustrator 19.0.0, SVG Export Plug-In . SVG Version: 6.00 Build 0)  -->
<svg version="1.1" id="Layer_1" xmlns="http://www.w3.org/2000/svg" xmlns:xlink="http://www.w3.org/1999/xlink" x="0px" y="0px"
	 viewBox="0 0 511.99 511.99" style="enable-background:new 0 0 511.99 511.99;" xml:space="preserve">
<g>
	<g>
		<path d="M117.341,330.739c-5.906,0-10.687,4.781-10.687,10.656c0,5.906,4.781,10.672,10.687,10.672
			c5.875,0,10.656-4.766,10.656-10.672C127.997,335.52,123.216,330.739,117.341,330.739z"/>
	</g>
</g>
<g>
	<g>
		<path d="M170.715,266.577c-5.875,0-10.656,4.781-10.656,10.664c0,5.906,4.781,10.671,10.656,10.671
			c5.906,0,10.672-4.765,10.672-10.671C181.387,271.358,176.621,266.577,170.715,266.577z"/>
	</g>
</g>
<g>
	<g>
		<path d="M192.058,287.912c-5.89,0-10.671,4.766-10.671,10.672c0,5.875,4.781,10.656,10.671,10.656
			c5.891,0,10.656-4.781,10.656-10.656C202.715,292.678,197.949,287.912,192.058,287.912z"/>
	</g>
</g>
<g>
	<g>
		<path d="M213.386,266.577c-5.89,0-10.671,4.781-10.671,10.664c0,5.906,4.781,10.671,10.671,10.671
			c5.891,0,10.672-4.765,10.672-10.671C224.058,271.358,219.277,266.577,213.386,266.577z"/>
	</g>
</g>
<g>
	<g>
		<path d="M234.714,287.912c-5.875,0-10.656,4.766-10.656,10.672c0,5.875,4.781,10.656,10.656,10.656
			c5.906,0,10.671-4.781,10.671-10.656C245.386,292.678,240.62,287.912,234.714,287.912z"/>
	</g>
</g>
<g>
	<g>
		<path d="M256.057,266.577c-5.891,0-10.672,4.781-10.672,10.664c0,5.906,4.781,10.671,10.672,10.671s10.656-4.765,10.656-10.671
			C266.714,271.358,261.948,266.577,256.057,266.577z"/>
	</g>
</g>
<g>
	<g>
		<path d="M277.386,287.912c-5.891,0-10.672,4.766-10.672,10.672c0,5.875,4.781,10.656,10.672,10.656s10.671-4.781,10.671-10.656
			C288.057,292.678,283.276,287.912,277.386,287.912z"/>
	</g>
</g>
<g>
	<g>
		<path d="M298.713,266.577c-5.875,0-10.656,4.781-10.656,10.664c0,5.906,4.781,10.671,10.656,10.671
			c5.906,0,10.672-4.765,10.672-10.671C309.385,271.358,304.619,266.577,298.713,266.577z"/>
	</g>
</g>
<g>
	<g>
		<path d="M320.056,287.912c-5.891,0-10.671,4.766-10.671,10.672c0,5.875,4.78,10.656,10.671,10.656s10.656-4.781,10.656-10.656
			C330.712,292.678,325.946,287.912,320.056,287.912z"/>
	</g>
</g>
<g>
	<g>
		<path d="M341.384,266.577c-5.891,0-10.672,4.781-10.672,10.664c0,5.906,4.781,10.671,10.672,10.671s10.672-4.765,10.672-10.671
			C352.056,271.358,347.274,266.577,341.384,266.577z"/>
	</g>
</g>
<g>
	<g>
		<path d="M492.537,241.335c-18.483-16.929-50.515-17.444-113.216-17.46c-4.953-7.508-15.422-21.328-32.75-35.055
			c-15.219-12.046-37.983-25.632-69.186-33.366v-27.538c0-5.891-4.766-10.664-10.672-10.664h-85.467
			c-5.891,0-10.656,4.773-10.656,10.664v27.538c-31.218,7.727-54.015,21.297-69.264,33.343
			c-17.375,13.719-27.89,27.539-32.859,35.031H55.936c-0.844-0.203-4.375-0.203-5.203,0H31.999c-2.828,0-5.531,1.125-7.531,3.125
			L3.125,248.288c-2,2-3.125,4.711-3.125,7.539v74.912c0,2.969,1.25,5.812,3.422,7.828c2.641,2.453,26.546,23.922,49.702,23.922
			h15.234c8.203,18.953,27.046,32.249,48.983,32.249c21.906,0,40.781-13.296,48.968-32.249h179.372
			c8.188,18.953,27.062,32.249,48.968,32.249c21.937,0,40.796-13.296,48.983-32.249h57.702c5.875,0,10.656-4.781,10.656-10.656
			C511.99,290.146,511.99,259.171,492.537,241.335z M332.493,204.898c8.469,6.602,15.063,13.25,19.984,18.93H213.339v-53.069
			c3.469-0.164,7.016-0.258,10.656-0.258C266.745,170.501,303.244,182.071,332.493,204.898z M191.918,138.579L191.918,138.579h64.14
			v12.766c-9.969-1.391-20.656-2.18-32.062-2.18c-11.406,0-22.093,0.789-32.078,2.18V138.579z M191.996,172.884v50.944H95.31
			C110.201,206.758,140.559,180.806,191.996,172.884z M36.421,245.163h6.234v10.664H25.749L36.421,245.163z M117.341,373.395
			c-17.656,0-31.999-14.344-31.999-32c0-17.641,14.343-31.999,31.999-31.999c17.625,0,32,14.358,32,31.999
			C149.341,359.052,134.966,373.395,117.341,373.395z M394.648,373.395c-17.624,0-31.999-14.344-31.999-32
			c0-17.641,14.375-31.999,31.999-31.999c17.655,0,31.999,14.358,31.999,31.999C426.647,359.052,412.304,373.395,394.648,373.395z
			 M447.991,341.161L447.991,341.161c-0.125-29.296-24-53.093-53.343-53.093c-29.312,0-53.187,23.797-53.312,53.093H170.653
			c-0.125-29.296-24-53.093-53.312-53.093c-29.343,0-53.218,23.797-53.343,53.093H53.343c-0.031,0-0.062,0-0.094,0h-0.125
			c-10.5,0-24.5-9.484-31.781-15.344v-48.654h32c5.875,0,10.656-4.766,10.656-10.664v-21.336h10.438h298.026
			c0.281,0.023,0.594,0.039,0.891,0.039c57.076,0,89.451,0.008,103.295,10.625h-18.125c-5.906,0-10.672,4.781-10.672,10.672
			c0,5.898,4.766,10.664,10.672,10.664h28.905c2.875,14.452,3.188,35.42,3.219,63.998H447.991z"/>
	</g>
</g>
<g>
	<g>
		<path d="M394.648,330.739c-5.875,0-10.655,4.781-10.655,10.656c0,5.906,4.78,10.672,10.655,10.672
			c5.906,0,10.688-4.766,10.688-10.672C405.336,335.52,400.555,330.739,394.648,330.739z"/>
	</g>
</g>
<g>
</g>
<g>
</g>
<g>
</g>
<g>
</g>
<g>
</g>
<g>
</g>
<g>
</g>
<g>
</g>
<g>
</g>
<g>
</g>
<g>
</g>
<g>
</g>
<g>
</g>
<g>
</g>
<g>
</g>
</svg>
