<?xml version="1.0" encoding="UTF-8" standalone="no"?>
<svg width="53px" height="52px" viewBox="0 0 53 52" version="1.1" xmlns="http://www.w3.org/2000/svg" xmlns:xlink="http://www.w3.org/1999/xlink">
    <!-- Generator: Sketch 49.1 (51147) - http://www.bohemiancoding.com/sketch -->
    <title>Group 33</title>
    <desc>Created with Sketch.</desc>
    <defs></defs>
    <g id="Page-1" stroke="none" stroke-width="1" fill="none" fill-rule="evenodd">
        <g id="traveller-dashboard" transform="translate(-514.000000, -428.000000)">
            <g id="Group-33" transform="translate(515.000000, 429.000000)">
                <ellipse id="Oval-8" stroke="#DBDBDB" fill="#FFFFFF" cx="25.5" cy="25" rx="25.5" ry="25"></ellipse>
                <g id="photo-camera" transform="translate(10.000000, 13.000000)" fill="#5B5B5B" fill-rule="nonzero">
                    <path d="M15.5,9.375 C12.93165,9.375 10.85,11.474375 10.85,14.0625 C10.85,16.6515625 12.93165,18.75 15.5,18.75 C18.06773,18.75 20.15,16.6515625 20.15,14.0625 C20.15,11.474375 18.06773,9.375 15.5,9.375 Z M27.9,4.6875 L24.18,4.6875 C23.6685,4.6875 23.11732,4.2875 22.95581,3.798125 L21.99419,0.8890625 C21.83206,0.4 21.2815,0 20.77,0 L10.23,0 C9.7185,0 9.16732,0.4 9.00581,0.889375 L8.04419,3.7984375 C7.88206,4.2875 7.3315,4.6875 6.82,4.6875 L3.1,4.6875 C1.395,4.6875 0,6.09375 0,7.8125 L0,21.875 C0,23.59375 1.395,25 3.1,25 L27.9,25 C29.605,25 31,23.59375 31,21.875 L31,7.8125 C31,6.09375 29.605,4.6875 27.9,4.6875 Z M15.5,21.875 C11.21983,21.875 7.75,18.3771875 7.75,14.0625 C7.75,9.748125 11.21983,6.25 15.5,6.25 C19.77955,6.25 23.25,9.748125 23.25,14.0625 C23.25,18.3771875 19.77955,21.875 15.5,21.875 Z M26.815,9.9978125 C26.21608,9.9978125 25.73,9.5084375 25.73,8.9040625 C25.73,8.3003125 26.21608,7.8103125 26.815,7.8103125 C27.41454,7.8103125 27.9,8.3003125 27.9,8.9040625 C27.9,9.5084375 27.41423,9.9978125 26.815,9.9978125 Z" id="Shape"></path>
                </g>
            </g>
        </g>
    </g>
</svg>