<?xml version="1.0" encoding="iso-8859-1"?>
<!-- Generator: Adobe Illustrator 17.1.0, SVG Export Plug-In . SVG Version: 6.00 Build 0)  -->
<!DOCTYPE svg PUBLIC "-//W3C//DTD SVG 1.1//EN" "http://www.w3.org/Graphics/SVG/1.1/DTD/svg11.dtd">
<svg xmlns="http://www.w3.org/2000/svg" xmlns:xlink="http://www.w3.org/1999/xlink" version="1.1" id="Capa_1" x="0px" y="0px" viewBox="0 0 297 297" style="enable-background:new 0 0 297 297;" xml:space="preserve" width="512px" height="512px">
<g>
	<path d="M219.484,181.227l-15.727-38.25C199.364,132.336,187.013,124,175.639,124h-54.541c-11.375,0-23.727,8.336-28.123,18.988   l-15.861,38.578c-1.884,1.632-3.44,3.468-4.463,5.413c-3.489,6.643-6.313,18.827-6.275,27.077l-0.161,1.277   c0.033,7.357,5.286,13.507,12.286,14.755V254h24v-24h92v24h24v-23.909c7-1.243,12.594-7.396,12.626-14.757l0.088-1.277   c0.035-8.25-2.959-20.434-6.704-27.077C223.337,184.9,221.611,182.939,219.484,181.227z M216.963,207.109   c0,4.104-3.329,7.432-7.433,7.432c-4.105,0-7.432-3.328-7.432-7.432c0-4.105,3.327-7.433,7.432-7.433   C213.634,199.677,216.963,203.005,216.963,207.109z M94.332,207.109c0,4.104-3.328,7.432-7.432,7.432   c-4.104,0-7.433-3.328-7.433-7.432c0-4.105,3.328-7.433,7.433-7.433C91.004,199.677,94.332,203.005,94.332,207.109z    M107.769,149.131c1.927-4.668,8.404-9.131,13.329-9.131h54.541c4.924,0,11.402,4.463,13.325,9.121L199.584,175H97.152   L107.769,149.131z M168.833,216h-40c-4.418,0-8-3.582-8-8s3.582-8,8-8h40c4.418,0,8,3.582,8,8S173.251,216,168.833,216z" fill="#ffffff"/>
	<path d="M218.48,0H56.833C44.15,0,33.5,10.317,33.5,23v251c0,12.683,10.65,23,23.333,23h184c12.683,0,22.667-10.317,22.667-23   V45.354L218.48,0z M240.833,281h-184c-3.859,0-7.333-3.141-7.333-7V23c0-3.859,3.474-7,7.333-7H206.5v41h41v217   C247.5,277.859,244.692,281,240.833,281z" fill="#ffffff"/>
	<rect x="65.5" y="49" width="83" height="16" fill="#ffffff"/>
	<rect x="65.5" y="82" width="165" height="16" fill="#ffffff"/>
</g>
<g>
</g>
<g>
</g>
<g>
</g>
<g>
</g>
<g>
</g>
<g>
</g>
<g>
</g>
<g>
</g>
<g>
</g>
<g>
</g>
<g>
</g>
<g>
</g>
<g>
</g>
<g>
</g>
<g>
</g>
</svg>
