<?xml version="1.0" encoding="iso-8859-1"?>
<!-- Generator: Adobe Illustrator 19.0.0, SVG Export Plug-In . SVG Version: 6.00 Build 0)  -->
<svg xmlns="http://www.w3.org/2000/svg" xmlns:xlink="http://www.w3.org/1999/xlink" version="1.1" id="Capa_1" x="0px" y="0px" viewBox="0 0 211.527 211.527" style="enable-background:new 0 0 211.527 211.527;" xml:space="preserve" width="512px" height="512px">
<g>
	<g>
		<path d="M183.045,15.028L73.974,0.123c-7.217-0.99-13.904,4.086-14.892,11.312L56.703,28.85c-0.256,1.867,1.051,3.589,2.92,3.843    c1.857,0.258,3.589-1.051,3.843-2.92l2.379-17.413c0.48-3.495,3.721-5.956,7.206-5.473l109.071,14.904    c3.495,0.48,5.951,3.712,5.473,7.206l-21.374,156.418c-0.48,3.495-3.727,5.953-7.206,5.473l-7.287-0.995    c-1.881-0.263-3.589,1.05-3.843,2.918c-0.256,1.867,1.051,3.589,2.918,3.843l7.287,0.995c0.604,0.082,1.205,0.123,1.799,0.123    c6.504,0,12.191-4.815,13.094-11.435L194.357,29.92C195.345,22.696,190.27,16.016,183.045,15.028z" fill="#6b6b6b"/>
	</g>
</g>
<g>
	<g>
		<path d="M140.356,27.205H30.271c-7.293,0-13.225,5.934-13.225,13.225v157.872c0,7.293,5.934,13.225,13.225,13.225h110.085    c7.291,0,13.223-5.932,13.225-13.225V40.43C153.581,33.137,147.647,27.205,140.356,27.205z M146.755,198.303    c0,3.528-2.871,6.398-6.398,6.398H30.271c-3.528,0-6.398-2.871-6.398-6.398V40.431c0-3.528,2.871-6.398,6.398-6.398h110.085    c3.528,0,6.398,2.871,6.398,6.398V198.303z" fill="#6b6b6b"/>
	</g>
</g>
<g>
	<g>
		<path d="M119.446,167.153h-71.68c-1.884,0-3.413,1.529-3.413,3.413s1.529,3.413,3.413,3.413h71.68    c1.886,0,3.413-1.529,3.413-3.413S121.331,167.153,119.446,167.153z" fill="#6b6b6b"/>
	</g>
</g>
<g>
	<g>
		<path d="M85.313,184.22H47.766c-1.884,0-3.413,1.529-3.413,3.413c0,1.884,1.529,3.413,3.413,3.413h37.547    c1.886,0,3.413-1.529,3.413-3.413C88.726,185.749,87.197,184.22,85.313,184.22z" fill="#6b6b6b"/>
	</g>
</g>
<g>
	<g>
		<path d="M139.926,61.34H30.7c-1.884,0-3.413,1.529-3.413,3.413v68.267c0,1.884,1.529,3.413,3.413,3.413h109.227    c1.886,0,3.413-1.529,3.413-3.413V64.753C143.34,62.869,141.811,61.34,139.926,61.34z M136.513,129.606h-102.4v-61.44h102.4    V129.606z" fill="#6b6b6b"/>
	</g>
</g>
<g>
	<g>
		<path d="M78.486,61.34H30.7c-1.884,0-3.413,1.529-3.413,3.413v40.96c0,1.884,1.529,3.413,3.413,3.413h47.787    c1.886,0,3.413-1.529,3.413-3.413v-40.96C81.9,62.869,80.371,61.34,78.486,61.34z M75.073,102.3h-40.96V68.166h40.96V102.3z" fill="#6b6b6b"/>
	</g>
</g>
<g>
	<g>
		<path d="M65.383,81.962c-0.457-1.406-1.766-2.359-3.246-2.359h-2.635c-1.783,0-3.352-1.14-3.903-2.836l-0.814-2.505    c-0.457-1.406-1.768-2.359-3.246-2.359c-1.478,0-2.789,0.952-3.246,2.359l-0.814,2.507c-0.551,1.696-2.12,2.836-3.903,2.836H40.94    c-1.478,0-2.789,0.952-3.246,2.359c-0.457,1.406,0.044,2.947,1.241,3.816l2.132,1.548c1.442,1.048,2.041,2.891,1.49,4.588    l-0.814,2.505c-0.456,1.406,0.044,2.947,1.241,3.816c1.196,0.869,2.818,0.869,4.012,0l2.133-1.55c1.446-1.05,3.383-1.046,4.825,0    l2.132,1.548c0.597,0.435,1.301,0.652,2.005,0.652c0.703,0,1.408-0.218,2.004-0.652c1.196-0.869,1.698-2.41,1.241-3.816    l-0.816-2.505c-0.55-1.696,0.049-3.54,1.492-4.588l2.132-1.548C65.338,84.909,65.84,83.368,65.383,81.962z M53.576,89.259    c-0.674-0.126-1.355-0.191-2.038-0.191c-0.681,0-1.364,0.065-2.038,0.191c-0.171-1.359-0.599-2.673-1.258-3.874    c1.239-0.584,2.359-1.396,3.296-2.394c0.939,0.998,2.057,1.811,3.296,2.394C54.175,86.587,53.748,87.901,53.576,89.259z" fill="#6b6b6b"/>
	</g>
</g>
<g>
	<g>
		<path d="M139.926,74.993h-61.44c-1.884,0-3.413,1.529-3.413,3.413c0,1.884,1.529,3.413,3.413,3.413h61.44    c1.886,0,3.413-1.529,3.413-3.413C143.34,76.522,141.811,74.993,139.926,74.993z" fill="#6b6b6b"/>
	</g>
</g>
<g>
	<g>
		<path d="M139.926,88.647h-61.44c-1.884,0-3.413,1.529-3.413,3.413s1.529,3.413,3.413,3.413h61.44c1.886,0,3.413-1.529,3.413-3.413    S141.811,88.647,139.926,88.647z" fill="#6b6b6b"/>
	</g>
</g>
<g>
	<g>
		<path d="M139.926,102.3h-61.44c-1.884,0-3.413,1.529-3.413,3.413s1.529,3.413,3.413,3.413h61.44c1.886,0,3.413-1.529,3.413-3.413    S141.811,102.3,139.926,102.3z" fill="#6b6b6b"/>
	</g>
</g>
<g>
	<g>
		<path d="M139.926,115.953H30.7c-1.884,0-3.413,1.529-3.413,3.413s1.529,3.413,3.413,3.413h109.227    c1.886,0,3.413-1.529,3.413-3.413S141.811,115.953,139.926,115.953z" fill="#6b6b6b"/>
	</g>
</g>
<g>
</g>
<g>
</g>
<g>
</g>
<g>
</g>
<g>
</g>
<g>
</g>
<g>
</g>
<g>
</g>
<g>
</g>
<g>
</g>
<g>
</g>
<g>
</g>
<g>
</g>
<g>
</g>
<g>
</g>
</svg>
